# xmcd
#
# Track frame offsets: 
#        150
#        8162
#        22002
#        37135
#        51992
#        71850
#        74692
#        88537
#        104967
#        121102
#        132282
#        147565
#        151627
#        166405
#        180250
#        196315
#        199597
#        213500
#        235712
#
# Disc length: 4108 seconds
#
# Revision: 2
# Processed by: cddbd v1.5.2PL0 Copyright (c) Steve Scherf et al.
# Submitted via: ExactAudioCopy v0.99pb4
#
DISCID=17100a13
DTITLE=DJ Hurricane - Don't Sleep
DYEAR=2000
DGENRE=Hip-Hop
TTITLE0=Ghost (Intro)
TTITLE1=Make Things Better
TTITLE2=Connect
TTITLE3=Keep It Real
TTITLE4=Come Get It
TTITLE5=Interlude
TTITLE6=Freeze The Frame
TTITLE7=The Life
TTITLE8=How We Doin' It
TTITLE9=Hurra's So Fly
TTITLE10=Blow It Up
TTITLE11=Conjunction Verb Interlude
TTITLE12=Can't Stop Us Now
TTITLE13=Kickin' Wicked Rhymes
TTITLE14=Shake'Em
TTITLE15=Paint My White House Interlude
TTITLE16=We Will Rock You
TTITLE17=Background
TTITLE18=Data Track
EXTD=YEAR: 2000
EXTT0=
EXTT1=
EXTT2=
EXTT3=
EXTT4=
EXTT5=
EXTT6=
EXTT7=
EXTT8=
EXTT9=
EXTT10=
EXTT11=
EXTT12=
EXTT13=
EXTT14=
EXTT15=
EXTT16=
EXTT17=
EXTT18=
PLAYORDER=
